<?xml version="1.0" encoding="utf-8"?>
<!-- Generator: Adobe Illustrator 19.2.1, SVG Export Plug-In . SVG Version: 6.00 Build 0)  -->
<svg version="1.1" id="Layer_1" xmlns="http://www.w3.org/2000/svg" xmlns:xlink="http://www.w3.org/1999/xlink" x="0px" y="0px"
	 viewBox="0 0 98 82" style="enable-background:new 0 0 98 82;" xml:space="preserve">
<path d="M71.6,28.6c-7.3,0-13.4-6.3-13.4-13.8C58.2,7.4,64.4,1,71.6,1c6.5,0,11.5,6,12.9,10h4.9c3.8,0,7.5,4,7.5,8
	c0,3.8-2.5,8-6.6,8H77.9c-0.5,0-1.3,0.3-2.1,0.6C74.6,28,73.2,28.6,71.6,28.6z M71.6,5.1c-5.1,0-9.4,4.5-9.4,9.7
	c0,5.3,4.3,9.8,9.4,9.8c0.9,0,1.8-0.4,2.9-0.8c1.1-0.4,2.2-0.8,3.4-0.8h12.5c1.5,0,2.6-2.1,2.6-4c0-1.8-1.9-4-3.5-4h-6.5
	c-1,0-1.9-0.7-2-1.8C80.7,10.3,76.7,5.1,71.6,5.1z"/>
<path d="M30.2,62.2C14.1,62.2,1,54.5,1,45.1C1,44,1.9,43,3,43h54.4c1.1,0,2,1,2,2.1C59.4,54.5,46.3,62.2,30.2,62.2z M5.3,47.1
	c1.9,5.6,11.6,11.1,24.8,11.1S53.1,52.7,55,47.1C55,47.1,5.3,47.1,5.3,47.1z"/>
<path d="M39,80.9C9.3,80.9,4.9,69.8,4.9,63.2c0-3.8,1.2-7.4,3.6-10.3l3.1,2.5c-1.8,2.3-2.7,5-2.7,7.8C8.9,72,19.6,76.9,39,76.9
	c29.7,0,34.9-7.5,36-14.1c1.5-8.5-3.6-35.1-3.7-35.4l3.9-0.8c0.2,1.1,5.3,27.7,3.7,36.9C76.8,75.6,64.5,80.9,39,80.9z"/>
<path d="M51,47.1v-4c1,0,2.6-0.5,3.6-1.6c3.1-3.1,4.5-10.4,4.4-21.7L59,19h4l0,0.8c0.1,8.1-0.3,19.4-5.5,24.6
	C55.7,46.2,53,47.1,51,47.1z"/>
<path d="M71.1,18.7c-3.3,0-6-2.7-6-6c0-3.3,2.7-6,6-6c3.3,0,6,2.7,6,6C77.1,16,74.4,18.7,71.1,18.7z M71.1,10.7c-1.1,0-2,0.9-2,2
	c0,1.1,0.9,2,2,2s2-0.9,2-2C73.1,11.6,72.2,10.7,71.1,10.7z"/>
</svg>
