<?xml version="1.0" encoding="utf-8"?>
<!-- Generator: Adobe Illustrator 19.2.1, SVG Export Plug-In . SVG Version: 6.00 Build 0)  -->
<svg version="1.1" id="Layer_1" xmlns="http://www.w3.org/2000/svg" xmlns:xlink="http://www.w3.org/1999/xlink" x="0px" y="0px"
	 viewBox="0 0 100 100" style="enable-background:new 0 0 100 100;" xml:space="preserve">
<style type="text/css">
	.st0{fill:#0066FF;}
	.st1{fill:#FFFFFF;}
</style>
<circle class="st0" cx="50" cy="50" r="49"/>
<path class="st1" d="M76.8,19.9c-0.3-0.2-0.7-0.3-1-0.3c-0.4,0-0.7,0.1-1.1,0.3l-58,38.6c-0.6,0.4-0.9,1.1-0.8,1.8
	c0.1,0.7,0.5,1.3,1.2,1.6l15.1,6l7.1,12.4c0.3,0.6,1,1,1.7,1c0,0,0,0,0,0c0.7,0,1.3-0.4,1.7-0.9l4-6.7l18.7,7.5
	c0.2,0.1,0.5,0.1,0.7,0.1c0.3,0,0.7-0.1,0.9-0.2c0.5-0.3,0.9-0.8,1-1.4l9.7-58C77.8,21,77.5,20.3,76.8,19.9z M21.9,59.7l44.8-29.9
	L34.2,64.7c-0.2-0.1-0.3-0.2-0.5-0.3L21.9,59.7z M35.6,66.1C35.6,66,35.6,66,35.6,66.1l36.6-39.2L41,75.5L35.6,66.1z M64.6,76.8
	l-16.5-6.6c-0.4-0.2-0.8-0.2-1.2-0.2l25.4-39.4L64.6,76.8z"/>
</svg>
