<svg xmlns="http://www.w3.org/2000/svg" width="536.3" height="298.3" viewBox="0 0 536.3 298.3"><defs><style>.a{fill:none;stroke:#000;stroke-miterlimit:10;}</style></defs><title>cloud-01</title><path class="a" d="M568,238.1a81.3,81.3,0,0,1-81.1,81.4H134.2c-56.1,0-101.6-45.7-101.6-101.8S78.2,115.8,134.2,115.8a101,101,0,0,1,48,12.1c-0.1-1.4-.1-2.8-0.1-4.2a101.6,101.6,0,0,1,194.1-42,101.6,101.6,0,0,1,96.9,76.2,81,81,0,0,1,13.7-1.2C531.7,156.7,568,193.3,568,238.1Z" transform="translate(-32.2 -21.7)"/></svg>